<?xml version="1.0" encoding="UTF-8" standalone="no" ?>
<!DOCTYPE svg PUBLIC "-//W3C//DTD SVG 1.1//EN" "http://www.w3.org/Graphics/SVG/1.1/DTD/svg11.dtd">
<svg xmlns="http://www.w3.org/2000/svg" xmlns:xlink="http://www.w3.org/1999/xlink" version="1.1" width="1280" height="1024" viewBox="0 0 1280 1024" xml:space="preserve">
<desc>Created with Fabric.js 4.4.0</desc>
<defs>
</defs>
<g transform="matrix(1 0 0 1 640 512)" id="background-logo"  >
<rect style="stroke: none; stroke-width: 0; stroke-dasharray: none; stroke-linecap: butt; stroke-dashoffset: 0; stroke-linejoin: miter; stroke-miterlimit: 4; fill: rgb(255,255,255); fill-opacity: 0; fill-rule: nonzero; opacity: 1;"  paint-order="stroke"  x="-640" y="-512" rx="0" ry="0" width="1280" height="1024" />
</g>
<g transform="matrix(3.0108718535304178 0 0 3.0108718535304178 640.3692341809583 512.4430810171497)" id="logo-logo"  >
<g style=""  paint-order="stroke"   >
		<g transform="matrix(0.2725406336317377 0 0 -0.2725406336317377 0.017266306289002387 -0.0001434199510867984)"  >
<path style="stroke: none; stroke-width: 1; stroke-dasharray: none; stroke-linecap: butt; stroke-dashoffset: 0; stroke-linejoin: miter; stroke-miterlimit: 4; fill: rgb(64,191,197); fill-rule: nonzero; opacity: 1;"  paint-order="stroke"  transform=" translate(0, -171.3215)" d="M 0 0 C 97.649 0 180.377 71.895 209.011 171.322 C 180.377 270.749 97.649 342.643 0 342.643 C -97.649 342.643 -180.377 270.74899999999997 -209.011 171.32199999999997 C -180.377 71.895 -97.649 0 0 0" stroke-linecap="round" />
</g>
		<g transform="matrix(0.2725406336317377 0 0 -0.2725406336317377 -78.98059264721331 -54.82982885770218)"  >
<path style="stroke: none; stroke-width: 1; stroke-dasharray: none; stroke-linecap: butt; stroke-dashoffset: 0; stroke-linejoin: miter; stroke-miterlimit: 4; fill: rgb(250,184,10); fill-rule: nonzero; opacity: 1;"  paint-order="stroke"  transform=" translate(3.09117799513794, -271.46005603511156)" d="M 0 0 L 14.676 -11.916 C 18.78 -15.25 24.711 -14.997 28.522 -11.363 C 32.339 -7.715 32.851 -1.8019999999999996 29.718 2.4450000000000003 C -36.74499999999999 92.50399999999999 -54.172 189.649 -19.362 275.973 C 10.036000000000001 348.648 42.441 407.136 105.034 456.36400000000003 C 133.565 478.79800000000006 135.681 514.657 110.543 538.683 C 86.787 561.389 43.99300000000001 563.504 17.088000000000008 543.298 L 14.625000000000007 541.437 C -191.487 384.733 -171.229 134.617 0 0" stroke-linecap="round" />
</g>
		<g transform="matrix(0.2725406336317377 0 0 -0.2725406336317377 3.409872043544965 -70.50645635982406)"  >
<path style="stroke: none; stroke-width: 1; stroke-dasharray: none; stroke-linecap: butt; stroke-dashoffset: 0; stroke-linejoin: miter; stroke-miterlimit: 4; fill: rgb(246,135,18); fill-rule: nonzero; opacity: 1;"  paint-order="stroke"  transform=" translate(-307.7727731260064, -150.52688719903045)" d="M 0 0 L -3.071 -16.168 C -4.039 -21.259999999999998 -1.1400000000000001 -26.293 3.749 -28.015 C 4.893 -28.418 6.066000000000001 -28.61 7.225 -28.61 C 11.009 -28.61 14.617999999999999 -26.551 16.482 -23.048 C 67.80799999999999 73.451 157.773 145.108 269.796 178.718 C 363.543 206.76899999999998 444.52599999999995 224.096 535.037 217.399 C 573.745 214.568 608.174 233.93200000000002 617.019 263.48199999999997 L 617.019 263.484 C 625.1320000000001 290.56899999999996 605.544 323.05199999999996 558.59 327.236 C 380.864 342.68 203.544 283.633 95.792 173.136 C 43.098 119.106 9.961 59.162 0 0" stroke-linecap="round" />
</g>
		<g transform="matrix(0.2725406336317377 0 0 -0.2725406336317377 60.04540698813264 -37.20944071579578)"  >
<path style="stroke: none; stroke-width: 1; stroke-dasharray: none; stroke-linecap: butt; stroke-dashoffset: 0; stroke-linejoin: miter; stroke-miterlimit: 4; fill: rgb(237,28,36); fill-rule: nonzero; opacity: 1;"  paint-order="stroke"  transform=" translate(346.6125881999895, -48.92862178643064)" d="M 0 0 C -95.335 115.991 -266.404 185.202 -446.526 180.489 C -555.252 177.675 -624.127 155.59 -699.087 122.15 C -710.575 117.02300000000001 -704.784 99.584 -692.507 102.352 C -560.3199999999999 132.199 -429.80299999999994 123.297 -325.00399999999996 77.283 C -238.06799999999996 39.028 -170.09399999999997 1.7420000000000044 -120.93199999999996 -55.878 C -106.12499999999996 -73.235 -82.11299999999996 -82.86 -57.36399999999996 -82.858 C -46.59899999999996 -82.858 -35.69399999999996 -81.036 -25.34699999999996 -77.238 C 8.263 -64.902 25.128 -30.824 0 0" stroke-linecap="round" />
</g>
		<g transform="matrix(0.2725406336317377 0 0 -0.2725406336317377 79.05459901477343 54.81794226252214)"  >
<path style="stroke: none; stroke-width: 1; stroke-dasharray: none; stroke-linecap: butt; stroke-dashoffset: 0; stroke-linejoin: miter; stroke-miterlimit: 4; fill: rgb(133,206,38); fill-rule: nonzero; opacity: 1;"  paint-order="stroke"  transform=" translate(-17.912714214442985, 283.3330944723702)" d="M 0 0 C -9.499 7.709 -22.308 -4.51 -15.04 -14.362 C 51.422999999999995 -104.419 68.85 -201.56 34.04 -287.887 C 4.634999999999998 -360.56600000000003 -27.771 -419.06 -90.36000000000001 -468.279 C -137.36900000000003 -505.255 -107.22500000000001 -569.098 -46.31600000000002 -569.098 C -27.477000000000018 -569.098 -13.096000000000018 -563.305 0.04899999999998528 -553.353 C 128.24899999999997 -455.88899999999995 178.83199999999997 -311.539 132.06999999999996 -176.63899999999995 C 102.293 -90.765 54.465 -44.207 0 0" stroke-linecap="round" />
</g>
		<g transform="matrix(0.2725406336317377 0 0 -0.2725406336317377 -3.375798844096721 70.50649069612462)"  >
<path style="stroke: none; stroke-width: 1; stroke-dasharray: none; stroke-linecap: butt; stroke-dashoffset: 0; stroke-linejoin: miter; stroke-miterlimit: 4; fill: rgb(16,131,207); fill-rule: nonzero; opacity: 1;"  paint-order="stroke"  transform=" translate(307.77355879439114, 150.5278656515733)" d="M 0 0 L 3.071 16.17 C 5.306 27.94 -10.884 33.585 -16.482 23.05 C -67.806 -73.44800000000001 -157.773 -145.10299999999998 -269.798 -178.714 C -363.543 -206.775 -444.525 -224.09199999999998 -535.0350000000001 -217.397 C -573.7060000000001 -214.527 -608.1680000000001 -233.928 -617.0190000000001 -263.484 C -620.7720000000002 -276.018 -618.6450000000001 -289.13399999999996 -611.0280000000001 -300.407 C -601.0900000000001 -315.111 -582.7720000000002 -325.029 -561.7330000000002 -326.95799999999997 L -558.5880000000002 -327.236 C -539.8570000000002 -328.866 -521.1540000000002 -329.664 -502.5100000000002 -329.664 C -218.2770000000002 -329.664 -26.2440000000002 -155.857 -2.2737367544323206e-13 0" stroke-linecap="round" />
</g>
		<g transform="matrix(0.2725406336317377 0 0 -0.2725406336317377 -60.028585546086845 37.2081061115897)"  >
<path style="stroke: none; stroke-width: 1; stroke-dasharray: none; stroke-linecap: butt; stroke-dashoffset: 0; stroke-linejoin: miter; stroke-miterlimit: 4; fill: rgb(179,15,142); fill-rule: nonzero; opacity: 1;"  paint-order="stroke"  transform=" translate(99.97729723097558, -131.56412264692958)" d="M 0 0 C 108.751 2.815 177.619 24.915 252.561 58.339 C 264.064 63.467999999999996 258.225 80.94 245.981 78.137 C 113.80099999999999 48.286 -16.718999999999994 57.188 -121.519 103.205 C -208.45600000000002 141.459 -276.43 178.74599999999998 -325.592 236.36399999999998 C -346.84 261.277 -387.041 270.26099999999997 -421.179 257.727 C -439.65299999999996 250.94599999999997 -452.768 237.908 -457.164 221.95899999999997 C -460.925 208.31099999999998 -457.803 194.384 -448.368 182.74699999999996 L -446.524 180.48699999999997 C -354.217 68.178 -190.887 -0.221 -17.129 -0.221 C -11.433 -0.221 -5.714 -0.147 0 0" stroke-linecap="round" />
</g>
		<g transform="matrix(0.2725406336317377 0 0 -0.2725406336317377 0.017239052225590967 -0.00019792807782437194)"  >
<path style="stroke: none; stroke-width: 1; stroke-dasharray: none; stroke-linecap: butt; stroke-dashoffset: 0; stroke-linejoin: miter; stroke-miterlimit: 4; fill: rgb(255,255,255); fill-rule: nonzero; opacity: 1;"  paint-order="stroke"  transform=" translate(104.953, 0)" d="M 0 0 C 0 -57.964 -46.989 -104.953 -104.953 -104.953 C -162.917 -104.953 -209.906 -57.964000000000006 -209.906 0 C -209.906 57.964 -162.917 104.953 -104.953 104.953 C -46.989 104.953 0 57.964 0 0" stroke-linecap="round" />
</g>
		<g transform="matrix(0.2725406336317377 0 0 -0.2725406336317377 0.01721179816223639 -0.00019792807782437194)"  >
<path style="stroke: none; stroke-width: 1; stroke-dasharray: none; stroke-linecap: butt; stroke-dashoffset: 0; stroke-linejoin: miter; stroke-miterlimit: 4; fill: rgb(46,49,146); fill-rule: nonzero; opacity: 1;"  paint-order="stroke"  transform=" translate(69.186, 0)" d="M 0 0 C 0 -38.21 -30.976 -69.186 -69.186 -69.186 C -107.39600000000002 -69.186 -138.372 -38.21000000000001 -138.372 0 C -138.372 38.21 -107.39600000000002 69.186 -69.186 69.186 C -30.976 69.186 0 38.21 0 0" stroke-linecap="round" />
</g>
</g>
</g>
</svg>